<?xml version="1.0" standalone="no"?><!DOCTYPE svg PUBLIC "-//W3C//DTD SVG 1.1//EN" "http://www.w3.org/Graphics/SVG/1.1/DTD/svg11.dtd"><svg t="1687157886797" class="icon" viewBox="0 0 1024 1024" version="1.1" xmlns="http://www.w3.org/2000/svg" p-id="8343" xmlns:xlink="http://www.w3.org/1999/xlink" width="200" height="200"><path d="M724.715 17.314H301.758c-155.826 0-284.444 126.145-284.444 284.444v422.957c0 155.826 126.145 284.444 284.444 284.444h422.957c155.826 0 284.444-126.145 284.444-284.444V301.758c-2.473-158.3-128.618-284.444-284.444-284.444zM514.473 764.29c-140.985 0-254.763-113.778-254.763-254.763 0-140.986 113.778-254.764 254.763-254.764 140.986 0 254.764 113.778 254.764 254.764 0 140.985-113.778 254.763-254.764 254.763z m262.184-460.058c-32.155 0-59.362-27.208-59.362-59.362 0-32.155 27.207-59.363 59.362-59.363s59.362 27.208 59.362 59.363c0 32.154-27.207 59.362-59.362 59.362zM514.473 346.28c-91.516 0-163.246 74.203-163.246 163.247 0 91.516 74.203 163.246 163.246 163.246 91.517 0 163.247-74.203 163.247-163.246S603.517 346.28 514.473 346.28z" fill="#E4007F" p-id="8344"></path></svg>