<?xml version="1.0" standalone="no"?><!DOCTYPE svg PUBLIC "-//W3C//DTD SVG 1.1//EN" "http://www.w3.org/Graphics/SVG/1.1/DTD/svg11.dtd"><svg t="1687157977965" class="icon" viewBox="0 0 1024 1024" version="1.1" xmlns="http://www.w3.org/2000/svg" p-id="11520" xmlns:xlink="http://www.w3.org/1999/xlink" width="200" height="200"><path d="M512 1024C229.2224 1024 0 794.7776 0 512 0 229.2224 229.2224 0 512 0c282.7776 0 512 229.2224 512 512 0 282.7776-229.2224 512-512 512z m-137.762133-286.378667V397.380267h-102.4V737.621333h102.4z m-51.2-488.448c-33.024 0-54.5792 22.954667-53.9136 53.589334-0.682667 29.218133 20.8896 52.872533 53.248 52.872533 33.672533 0 55.2448-23.6544 55.2448-52.8896-0.682667-30.6176-21.572267-53.572267-54.5792-53.572267z m133.410133 488.448h102.4V541.405867c0-9.728 1.365333-20.1728 4.061867-26.453334 6.724267-19.456 23.569067-39.645867 51.882666-39.645866 37.034667 0 51.882667 29.917867 51.882667 73.762133V737.621333h102.4V535.842133c0-100.181333-50.517333-146.1248-117.9136-146.1248-54.562133 0-88.251733 32.7168-101.7344 54.272h-2.030933l-4.7104-46.609066h-88.9344c1.348267 29.917867 2.696533 66.0992 2.696533 108.544V737.621333z" fill="#0073B1" p-id="11521"></path></svg>